<svg data-v-423bf9ae="" xmlns="http://www.w3.org/2000/svg" viewBox="0 0 315 90" class="iconLeftSlogan"><!----><defs data-v-423bf9ae=""><linearGradient data-v-423bf9ae="" gradientTransform="rotate(25)" id="90cb569c-4b3e-4da7-be86-bf7156ee65da" x1="0%" y1="0%" x2="100%" y2="0%"><stop data-v-423bf9ae="" offset="0%" style="stop-color: rgb(216, 143, 154); stop-opacity: 1;"></stop><stop data-v-423bf9ae="" offset="100%" style="stop-color: rgb(240, 235, 203); stop-opacity: 1;"></stop></linearGradient></defs><!----><g data-v-423bf9ae="" id="5334e76c-e4c2-4810-bad1-c975a2b0c9f3" fill="#ffffff" transform="matrix(4.9792526391450265,0,0,4.9792526391450265,88.5542841931709,-35.551863655530695)"><path d="M7.08 13.13L7.08 13.13Q7.73 15.12 8.49 16.58L8.49 16.58L8.49 16.58Q9.25 18.03 9.93 18.54L9.93 18.54L9.93 18.54Q9.67 18.79 9.16 18.98L9.16 18.98L9.16 18.98Q8.65 19.18 8.25 19.18L8.25 19.18L8.25 19.18Q7.67 19.18 7.28 18.97L7.28 18.97L7.28 18.97Q6.89 18.76 6.56 18.26L6.56 18.26L6.56 18.26Q6.23 17.77 5.87 16.84L5.87 16.84L4.91 14.42L3.89 15.02L3.89 15.02Q3.63 16.65 3.63 17.12L3.63 17.12L3.63 17.12Q3.63 17.67 3.72 18.03L3.72 18.03L3.72 18.03Q3.81 18.38 4.00 18.66L4.00 18.66L4.00 18.66Q3.33 19.19 2.53 19.19L2.53 19.19L2.53 19.19Q1.78 19.19 1.44 18.82L1.44 18.82L1.44 18.82Q1.11 18.44 1.11 17.60L1.11 17.60L1.11 17.60Q1.11 16.88 1.30 15.46L1.30 15.46L1.30 15.46Q1.50 14.03 2.06 10.77L2.06 10.77L1.44 9.52L1.44 9.52Q2.77 8.67 3.85 8.67L3.85 8.67L3.85 8.67Q4.75 8.67 4.75 9.76L4.75 9.76L4.75 9.76Q4.75 10.00 4.59 10.95L4.59 10.95L4.59 10.95Q4.44 11.90 4.26 12.96L4.26 12.96L4.14 13.58L4.70 13.16L4.70 13.16Q6.05 12.15 6.67 11.34L6.67 11.34L6.67 11.34Q7.29 10.53 7.29 9.77L7.29 9.77L7.29 9.77Q7.29 9.49 7.18 9.18L7.18 9.18L7.18 9.18Q7.98 8.68 8.75 8.68L8.75 8.68L8.75 8.68Q9.32 8.68 9.65 8.97L9.65 8.97L9.65 8.97Q9.97 9.27 9.97 9.83L9.97 9.83L9.97 9.83Q9.97 10.58 9.28 11.38L9.28 11.38L9.28 11.38Q8.58 12.18 7.08 13.13L7.08 13.13ZM12.38 19.18L12.38 19.18Q11.66 19.18 11.33 18.82L11.33 18.82L11.33 18.82Q11.00 18.45 11.00 17.74L11.00 17.74L11.00 17.74Q11.00 16.80 12.03 11.63L12.03 11.63L12.38 9.80L11.65 8.83L11.65 8.83Q12.15 8.46 12.76 8.22L12.76 8.22L12.76 8.22Q13.37 7.98 13.87 7.98L13.87 7.98L13.87 7.98Q14.42 7.98 14.66 8.19L14.66 8.19L14.66 8.19Q14.90 8.40 14.90 8.89L14.90 8.89L14.90 8.89Q14.90 9.20 14.80 9.67L14.80 9.67L14.80 9.67Q14.70 10.14 14.48 11.07L14.48 11.07L14.48 11.07Q14.42 11.34 14.27 11.97L14.27 11.97L14.27 11.97Q14.11 12.60 14 13.15L14 13.15L14.14 13.22L14.14 13.22Q14.94 11.80 15.97 11.12L15.97 11.12L15.97 11.12Q17.00 10.43 18.06 10.43L18.06 10.43L18.06 10.43Q18.94 10.43 19.37 10.86L19.37 10.86L19.37 10.86Q19.80 11.28 19.80 12.19L19.80 12.19L19.80 12.19Q19.80 12.70 19.70 13.23L19.70 13.23L19.70 13.23Q19.60 13.76 19.38 14.69L19.38 14.69L19.38 14.69Q19.15 15.60 19.03 16.25L19.03 16.25L19.03 16.25Q18.90 16.91 18.90 17.54L18.90 17.54L18.90 17.54Q18.90 17.88 18.97 18.17L18.97 18.17L18.97 18.17Q19.04 18.45 19.15 18.61L19.15 18.61L19.15 18.61Q18.54 19.18 17.86 19.18L17.86 19.18L17.86 19.18Q17.15 19.18 16.82 18.82L16.82 18.82L16.82 18.82Q16.49 18.45 16.49 17.74L16.49 17.74L16.49 17.74Q16.49 17.18 16.62 16.54L16.62 16.54L16.62 16.54Q16.74 15.90 16.98 15.02L16.98 15.02L16.98 15.02Q17.18 14.25 17.27 13.82L17.27 13.82L17.27 13.82Q17.36 13.38 17.36 13.03L17.36 13.03L17.36 13.03Q17.36 12.24 16.73 12.24L16.73 12.24L16.73 12.24Q16.07 12.24 15.29 12.94L15.29 12.94L15.29 12.94Q14.50 13.64 13.96 14.85L13.96 14.85L13.96 14.85Q13.41 16.07 13.41 17.54L13.41 17.54L13.41 17.54Q13.41 18.28 13.65 18.61L13.65 18.61L13.65 18.61Q13.06 19.18 12.38 19.18L12.38 19.18ZM24.08 9.49L24.08 9.49Q23.51 9.49 23.15 9.22L23.15 9.22L23.15 9.22Q22.79 8.95 22.79 8.47L22.79 8.47L22.79 8.47Q22.79 7.88 23.30 7.51L23.30 7.51L23.30 7.51Q23.80 7.14 24.43 7.14L24.43 7.14L24.43 7.14Q25.00 7.14 25.36 7.41L25.36 7.41L25.36 7.41Q25.72 7.69 25.72 8.15L25.72 8.15L25.72 8.15Q25.72 8.74 25.23 9.11L25.23 9.11L25.23 9.11Q24.75 9.49 24.08 9.49L24.08 9.49ZM23.07 19.18L23.07 19.18Q22.36 19.18 22.03 18.82L22.03 18.82L22.03 18.82Q21.70 18.47 21.70 17.74L21.70 17.74L21.70 17.74Q21.70 17.18 21.96 15.83L21.96 15.83L21.96 15.83Q22.22 14.48 22.71 12.29L22.71 12.29L21.99 11.30L21.99 11.30Q22.53 10.91 23.14 10.67L23.14 10.67L23.14 10.67Q23.76 10.43 24.29 10.43L24.29 10.43L24.29 10.43Q24.81 10.43 25.02 10.65L25.02 10.65L25.02 10.65Q25.24 10.86 25.24 11.37L25.24 11.37L25.24 11.37Q25.24 11.56 24.92 12.92L24.92 12.92L24.92 12.92Q24.56 14.43 24.33 15.58L24.33 15.58L24.33 15.58Q24.11 16.72 24.11 17.54L24.11 17.54L24.11 17.54Q24.11 18.33 24.47 18.61L24.47 18.61L24.47 18.61Q23.81 19.18 23.07 19.18L23.07 19.18ZM28.42 19.18L28.42 19.18Q27.71 19.18 27.38 18.82L27.38 18.82L27.38 18.82Q27.05 18.45 27.05 17.74L27.05 17.74L27.05 17.74Q27.05 17.16 27.37 15.42L27.37 15.42L27.37 15.42Q27.69 13.68 28.06 12.14L28.06 12.14L27.37 11.19L27.37 11.19Q27.89 10.85 28.47 10.65L28.47 10.65L28.47 10.65Q29.05 10.44 29.58 10.44L29.58 10.44L29.58 10.44Q30.10 10.44 30.34 10.68L30.34 10.68L30.34 10.68Q30.58 10.92 30.58 11.40L30.58 11.40L30.58 11.40Q30.58 11.76 30.48 12.17L30.48 12.17L30.48 12.17Q30.38 12.59 30.21 12.92L30.21 12.92L30.35 12.99L30.35 12.99Q31.81 10.43 34.10 10.43L34.10 10.43L34.10 10.43Q34.99 10.43 35.41 10.86L35.41 10.86L35.41 10.86Q35.84 11.30 35.84 12.19L35.84 12.19L35.84 12.19Q35.84 12.70 35.74 13.23L35.74 13.23L35.74 13.23Q35.64 13.76 35.42 14.69L35.42 14.69L35.42 14.69Q35.20 15.60 35.07 16.25L35.07 16.25L35.07 16.25Q34.94 16.91 34.94 17.54L34.94 17.54L34.94 17.54Q34.94 18.26 35.20 18.61L35.20 18.61L35.20 18.61Q34.58 19.18 33.91 19.18L33.91 19.18L33.91 19.18Q33.19 19.18 32.87 18.82L32.87 18.82L32.87 18.82Q32.55 18.45 32.55 17.74L32.55 17.74L32.55 17.74Q32.55 17.18 32.67 16.58L32.67 16.58L32.67 16.58Q32.79 15.97 33.03 15.02L33.03 15.02L33.03 15.02Q33.22 14.25 33.31 13.82L33.31 13.82L33.31 13.82Q33.40 13.38 33.40 13.03L33.40 13.03L33.40 13.03Q33.40 12.24 32.77 12.24L32.77 12.24L32.77 12.24Q32.07 12.24 31.29 12.98L31.29 12.98L31.29 12.98Q30.51 13.72 29.98 14.95L29.98 14.95L29.98 14.95Q29.46 16.17 29.46 17.54L29.46 17.54L29.46 17.54Q29.46 18.26 29.71 18.61L29.71 18.61L29.71 18.61Q29.06 19.18 28.42 19.18L28.42 19.18ZM45.32 12.45L45.32 12.45Q45.32 13.41 44.66 14.11L44.66 14.11L44.66 14.11Q44.00 14.81 42.76 15.19L42.76 15.19L42.76 15.19Q41.51 15.57 39.79 15.58L39.79 15.58L39.79 15.76L39.79 15.76Q39.79 16.79 40.15 17.36L40.15 17.36L40.15 17.36Q40.52 17.93 41.16 17.93L41.16 17.93L41.16 17.93Q41.94 17.93 42.45 17.39L42.45 17.39L42.45 17.39Q42.95 16.84 42.99 15.95L42.99 15.95L42.99 15.95Q43.72 15.95 44.11 16.22L44.11 16.22L44.11 16.22Q44.49 16.49 44.49 17.01L44.49 17.01L44.49 17.01Q44.49 17.60 44.02 18.10L44.02 18.10L44.02 18.10Q43.54 18.59 42.72 18.89L42.72 18.89L42.72 18.89Q41.90 19.18 40.91 19.18L40.91 19.18L40.91 19.18Q39.27 19.18 38.35 18.26L38.35 18.26L38.35 18.26Q37.42 17.33 37.42 15.71L37.42 15.71L37.42 15.71Q37.42 14.21 38.12 13.01L38.12 13.01L38.12 13.01Q38.81 11.80 40.03 11.12L40.03 11.12L40.03 11.12Q41.24 10.43 42.76 10.43L42.76 10.43L42.76 10.43Q43.97 10.43 44.65 10.96L44.65 10.96L44.65 10.96Q45.32 11.49 45.32 12.45L45.32 12.45ZM42.38 11.77L42.38 11.77Q41.54 11.77 40.84 12.59L40.84 12.59L40.84 12.59Q40.15 13.40 39.90 14.63L39.90 14.63L39.90 14.63Q41.50 14.56 42.37 14.04L42.37 14.04L42.37 14.04Q43.25 13.51 43.25 12.61L43.25 12.61L43.25 12.61Q43.25 12.24 43.01 12.01L43.01 12.01L43.01 12.01Q42.77 11.77 42.38 11.77L42.38 11.77Z"></path></g><!----><g data-v-423bf9ae="" id="a16ade5d-ce46-4376-9ef4-1da6e3e0a2d2" transform="matrix(2.8125,0,0,2.8125,-7.170000076293945,0)" stroke="none" fill="#ffffff"><path d="M2.83 18.247l26.34-9.124L2.83 0zM29.17 32V13.753L2.83 22.877z"></path></g><!----><g data-v-423bf9ae="" id="440cb598-7c80-4868-be1a-b992839ff5c0" fill="#ffffff" transform="matrix(1.768134602332601,0,0,1.768134602332601,91.72962709069236,49.95699661866226)"><path d="M1.33 15.68L1.33 5.88L7.35 5.88L7.35 6.97L2.51 6.97L2.51 10.22L7.27 10.22L7.27 11.31L2.51 11.31L2.51 15.68L1.33 15.68ZM16.41 11.87L16.41 9.69L16.41 9.69Q16.41 7.78 17.32 6.73L17.32 6.73L17.32 6.73Q18.23 5.68 19.85 5.68L19.85 5.68L19.85 5.68Q21.48 5.68 22.39 6.73L22.39 6.73L22.39 6.73Q23.30 7.78 23.30 9.69L23.30 9.69L23.30 11.87L23.30 11.87Q23.30 13.83 22.39 14.85L22.39 14.85L22.39 14.85Q21.48 15.88 19.85 15.88L19.85 15.88L19.85 15.88Q18.23 15.88 17.32 14.85L17.32 14.85L17.32 14.85Q16.41 13.83 16.41 11.87L16.41 11.87ZM19.85 14.78L19.85 14.78L19.85 14.78Q20.99 14.78 21.55 14.01L21.55 14.01L21.55 14.01Q22.12 13.23 22.12 11.79L22.12 11.79L22.12 9.77L22.12 9.77Q22.12 8.43 21.55 7.60L21.55 7.60L21.55 7.60Q20.99 6.78 19.85 6.78L19.85 6.78L19.85 6.78Q18.72 6.78 18.15 7.60L18.15 7.60L18.15 7.60Q17.58 8.43 17.58 9.77L17.58 9.77L17.58 11.79L17.58 11.79Q17.58 13.23 18.15 14.01L18.15 14.01L18.15 14.01Q18.72 14.78 19.85 14.78ZM32.35 15.68L32.35 5.88L33.53 5.88L33.53 14.59L38.65 14.59L38.65 15.68L32.35 15.68ZM47.54 11.87L47.54 9.69L47.54 9.69Q47.54 7.78 48.45 6.73L48.45 6.73L48.45 6.73Q49.36 5.68 50.99 5.68L50.99 5.68L50.99 5.68Q52.61 5.68 53.52 6.73L53.52 6.73L53.52 6.73Q54.43 7.78 54.43 9.69L54.43 9.69L54.43 11.87L54.43 11.87Q54.43 13.83 53.52 14.85L53.52 14.85L53.52 14.85Q52.61 15.88 50.99 15.88L50.99 15.88L50.99 15.88Q49.36 15.88 48.45 14.85L48.45 14.85L48.45 14.85Q47.54 13.83 47.54 11.87L47.54 11.87ZM50.99 14.78L50.99 14.78L50.99 14.78Q52.12 14.78 52.69 14.01L52.69 14.01L52.69 14.01Q53.26 13.23 53.26 11.79L53.26 11.79L53.26 9.77L53.26 9.77Q53.26 8.43 52.69 7.60L52.69 7.60L52.69 7.60Q52.12 6.78 50.99 6.78L50.99 6.78L50.99 6.78Q49.85 6.78 49.29 7.60L49.29 7.60L49.29 7.60Q48.72 8.43 48.72 9.77L48.72 9.77L48.72 11.79L48.72 11.79Q48.72 13.23 49.29 14.01L49.29 14.01L49.29 14.01Q49.85 14.78 50.99 14.78ZM69.62 12.15L69.62 15.68L68.45 15.68L68.45 12.40L68.45 12.40Q68.45 12.04 68.28 11.84L68.28 11.84L68.28 11.84Q68.11 11.65 67.69 11.65L67.69 11.65L64.64 11.65L64.64 15.68L63.46 15.68L63.46 5.88L66.96 5.88L66.96 5.88Q67.72 5.88 68.28 6.10L68.28 6.10L68.28 6.10Q68.84 6.31 69.21 6.68L69.21 6.68L69.21 6.68Q69.58 7.04 69.77 7.53L69.77 7.53L69.77 7.53Q69.96 8.01 69.96 8.54L69.96 8.54L69.96 8.96L69.96 8.96Q69.96 9.51 69.66 10.05L69.66 10.05L69.66 10.05Q69.36 10.60 68.73 10.89L68.73 10.89L68.73 11.06L68.73 11.06Q69.15 11.13 69.38 11.40L69.38 11.40L69.38 11.40Q69.62 11.66 69.62 12.15L69.62 12.15ZM64.64 6.97L64.64 10.56L66.82 10.56L66.82 10.56Q67.82 10.56 68.30 10.13L68.30 10.13L68.30 10.13Q68.78 9.70 68.78 8.88L68.78 8.88L68.78 8.62L68.78 8.62Q68.78 7.88 68.30 7.43L68.30 7.43L68.30 7.43Q67.82 6.97 66.82 6.97L66.82 6.97L64.64 6.97ZM84.94 15.68L84.22 13.24L80.02 13.24L79.31 15.68L78.05 15.68L81.02 5.88L83.23 5.88L86.20 15.68L84.94 15.68ZM82.21 6.38L82.04 6.38L80.35 12.15L83.90 12.15L82.21 6.38ZM94.63 15.68L94.63 5.88L95.80 5.88L95.80 14.59L100.93 14.59L100.93 15.68L94.63 15.68Z"></path></g></svg>