<svg data-v-fde0c5aa="" xmlns="http://www.w3.org/2000/svg" viewBox="0 0 300 300" class="font"><!----><defs data-v-fde0c5aa=""><linearGradient data-v-fde0c5aa="" gradientTransform="rotate(25)" id="68b0120e-0f5c-4775-a602-69e1b5adc7d9" x1="0%" y1="0%" x2="100%" y2="0%"><stop data-v-fde0c5aa="" offset="0%" stop-color="#D88F9A" stop-opacity="1"></stop><stop data-v-fde0c5aa="" offset="100%" stop-color="#F0EBCB" stop-opacity="1"></stop></linearGradient></defs><rect data-v-fde0c5aa="" fill="url(#68b0120e-0f5c-4775-a602-69e1b5adc7d9)" x="0" y="0" width="300px" height="300px" class="logo-background-square"></rect><defs data-v-fde0c5aa=""><!----></defs><g data-v-fde0c5aa="" id="aa7b7586-18fd-4551-a2c8-f39bbb67e03a" fill="#ffffff" transform="matrix(4.976249820309722,0,0,4.976249820309722,34.47636262827039,84.48766893259057)"><path d="M7.08 13.13L7.08 13.13Q7.73 15.12 8.49 16.58L8.49 16.58L8.49 16.58Q9.25 18.03 9.93 18.54L9.93 18.54L9.93 18.54Q9.67 18.79 9.16 18.98L9.16 18.98L9.16 18.98Q8.65 19.18 8.25 19.18L8.25 19.18L8.25 19.18Q7.67 19.18 7.28 18.97L7.28 18.97L7.28 18.97Q6.89 18.76 6.56 18.26L6.56 18.26L6.56 18.26Q6.23 17.77 5.87 16.84L5.87 16.84L4.91 14.42L3.89 15.02L3.89 15.02Q3.63 16.65 3.63 17.12L3.63 17.12L3.63 17.12Q3.63 17.67 3.72 18.03L3.72 18.03L3.72 18.03Q3.81 18.38 4.00 18.66L4.00 18.66L4.00 18.66Q3.33 19.19 2.53 19.19L2.53 19.19L2.53 19.19Q1.78 19.19 1.44 18.82L1.44 18.82L1.44 18.82Q1.11 18.44 1.11 17.60L1.11 17.60L1.11 17.60Q1.11 16.88 1.30 15.46L1.30 15.46L1.30 15.46Q1.50 14.03 2.06 10.77L2.06 10.77L1.44 9.52L1.44 9.52Q2.77 8.67 3.85 8.67L3.85 8.67L3.85 8.67Q4.75 8.67 4.75 9.76L4.75 9.76L4.75 9.76Q4.75 10.00 4.59 10.95L4.59 10.95L4.59 10.95Q4.44 11.90 4.26 12.96L4.26 12.96L4.14 13.58L4.70 13.16L4.70 13.16Q6.05 12.15 6.67 11.34L6.67 11.34L6.67 11.34Q7.29 10.53 7.29 9.77L7.29 9.77L7.29 9.77Q7.29 9.49 7.18 9.18L7.18 9.18L7.18 9.18Q7.98 8.68 8.75 8.68L8.75 8.68L8.75 8.68Q9.32 8.68 9.65 8.97L9.65 8.97L9.65 8.97Q9.97 9.27 9.97 9.83L9.97 9.83L9.97 9.83Q9.97 10.58 9.28 11.38L9.28 11.38L9.28 11.38Q8.58 12.18 7.08 13.13L7.08 13.13ZM12.38 19.18L12.38 19.18Q11.66 19.18 11.33 18.82L11.33 18.82L11.33 18.82Q11.00 18.45 11.00 17.74L11.00 17.74L11.00 17.74Q11.00 16.80 12.03 11.63L12.03 11.63L12.38 9.80L11.65 8.83L11.65 8.83Q12.15 8.46 12.76 8.22L12.76 8.22L12.76 8.22Q13.37 7.98 13.87 7.98L13.87 7.98L13.87 7.98Q14.42 7.98 14.66 8.19L14.66 8.19L14.66 8.19Q14.90 8.40 14.90 8.89L14.90 8.89L14.90 8.89Q14.90 9.20 14.80 9.67L14.80 9.67L14.80 9.67Q14.70 10.14 14.48 11.07L14.48 11.07L14.48 11.07Q14.42 11.34 14.27 11.97L14.27 11.97L14.27 11.97Q14.11 12.60 14 13.15L14 13.15L14.14 13.22L14.14 13.22Q14.94 11.80 15.97 11.12L15.97 11.12L15.97 11.12Q17.00 10.43 18.06 10.43L18.06 10.43L18.06 10.43Q18.94 10.43 19.37 10.86L19.37 10.86L19.37 10.86Q19.80 11.28 19.80 12.19L19.80 12.19L19.80 12.19Q19.80 12.70 19.70 13.23L19.70 13.23L19.70 13.23Q19.60 13.76 19.38 14.69L19.38 14.69L19.38 14.69Q19.15 15.60 19.03 16.25L19.03 16.25L19.03 16.25Q18.90 16.91 18.90 17.54L18.90 17.54L18.90 17.54Q18.90 17.88 18.97 18.17L18.97 18.17L18.97 18.17Q19.04 18.45 19.15 18.61L19.15 18.61L19.15 18.61Q18.54 19.18 17.86 19.18L17.86 19.18L17.86 19.18Q17.15 19.18 16.82 18.82L16.82 18.82L16.82 18.82Q16.49 18.45 16.49 17.74L16.49 17.74L16.49 17.74Q16.49 17.18 16.62 16.54L16.62 16.54L16.62 16.54Q16.74 15.90 16.98 15.02L16.98 15.02L16.98 15.02Q17.18 14.25 17.27 13.82L17.27 13.82L17.27 13.82Q17.36 13.38 17.36 13.03L17.36 13.03L17.36 13.03Q17.36 12.24 16.73 12.24L16.73 12.24L16.73 12.24Q16.07 12.24 15.29 12.94L15.29 12.94L15.29 12.94Q14.50 13.64 13.96 14.85L13.96 14.85L13.96 14.85Q13.41 16.07 13.41 17.54L13.41 17.54L13.41 17.54Q13.41 18.28 13.65 18.61L13.65 18.61L13.65 18.61Q13.06 19.18 12.38 19.18L12.38 19.18ZM24.08 9.49L24.08 9.49Q23.51 9.49 23.15 9.22L23.15 9.22L23.15 9.22Q22.79 8.95 22.79 8.47L22.79 8.47L22.79 8.47Q22.79 7.88 23.30 7.51L23.30 7.51L23.30 7.51Q23.80 7.14 24.43 7.14L24.43 7.14L24.43 7.14Q25.00 7.14 25.36 7.41L25.36 7.41L25.36 7.41Q25.72 7.69 25.72 8.15L25.72 8.15L25.72 8.15Q25.72 8.74 25.23 9.11L25.23 9.11L25.23 9.11Q24.75 9.49 24.08 9.49L24.08 9.49ZM23.07 19.18L23.07 19.18Q22.36 19.18 22.03 18.82L22.03 18.82L22.03 18.82Q21.70 18.47 21.70 17.74L21.70 17.74L21.70 17.74Q21.70 17.18 21.96 15.83L21.96 15.83L21.96 15.83Q22.22 14.48 22.71 12.29L22.71 12.29L21.99 11.30L21.99 11.30Q22.53 10.91 23.14 10.67L23.14 10.67L23.14 10.67Q23.76 10.43 24.29 10.43L24.29 10.43L24.29 10.43Q24.81 10.43 25.02 10.65L25.02 10.65L25.02 10.65Q25.24 10.86 25.24 11.37L25.24 11.37L25.24 11.37Q25.24 11.56 24.92 12.92L24.92 12.92L24.92 12.92Q24.56 14.43 24.33 15.58L24.33 15.58L24.33 15.58Q24.11 16.72 24.11 17.54L24.11 17.54L24.11 17.54Q24.11 18.33 24.47 18.61L24.47 18.61L24.47 18.61Q23.81 19.18 23.07 19.18L23.07 19.18ZM28.42 19.18L28.42 19.18Q27.71 19.18 27.38 18.82L27.38 18.82L27.38 18.82Q27.05 18.45 27.05 17.74L27.05 17.74L27.05 17.74Q27.05 17.16 27.37 15.42L27.37 15.42L27.37 15.42Q27.69 13.68 28.06 12.14L28.06 12.14L27.37 11.19L27.37 11.19Q27.89 10.85 28.47 10.65L28.47 10.65L28.47 10.65Q29.05 10.44 29.58 10.44L29.58 10.44L29.58 10.44Q30.10 10.44 30.34 10.68L30.34 10.68L30.34 10.68Q30.58 10.92 30.58 11.40L30.58 11.40L30.58 11.40Q30.58 11.76 30.48 12.17L30.48 12.17L30.48 12.17Q30.38 12.59 30.21 12.92L30.21 12.92L30.35 12.99L30.35 12.99Q31.81 10.43 34.10 10.43L34.10 10.43L34.10 10.43Q34.99 10.43 35.41 10.86L35.41 10.86L35.41 10.86Q35.84 11.30 35.84 12.19L35.84 12.19L35.84 12.19Q35.84 12.70 35.74 13.23L35.74 13.23L35.74 13.23Q35.64 13.76 35.42 14.69L35.42 14.69L35.42 14.69Q35.20 15.60 35.07 16.25L35.07 16.25L35.07 16.25Q34.94 16.91 34.94 17.54L34.94 17.54L34.94 17.54Q34.94 18.26 35.20 18.61L35.20 18.61L35.20 18.61Q34.58 19.18 33.91 19.18L33.91 19.18L33.91 19.18Q33.19 19.18 32.87 18.82L32.87 18.82L32.87 18.82Q32.55 18.45 32.55 17.74L32.55 17.74L32.55 17.74Q32.55 17.18 32.67 16.58L32.67 16.58L32.67 16.58Q32.79 15.97 33.03 15.02L33.03 15.02L33.03 15.02Q33.22 14.25 33.31 13.82L33.31 13.82L33.31 13.82Q33.40 13.38 33.40 13.03L33.40 13.03L33.40 13.03Q33.40 12.24 32.77 12.24L32.77 12.24L32.77 12.24Q32.07 12.24 31.29 12.98L31.29 12.98L31.29 12.98Q30.51 13.72 29.98 14.95L29.98 14.95L29.98 14.95Q29.46 16.17 29.46 17.54L29.46 17.54L29.46 17.54Q29.46 18.26 29.71 18.61L29.71 18.61L29.71 18.61Q29.06 19.18 28.42 19.18L28.42 19.18ZM45.32 12.45L45.32 12.45Q45.32 13.41 44.66 14.11L44.66 14.11L44.66 14.11Q44.00 14.81 42.76 15.19L42.76 15.19L42.76 15.19Q41.51 15.57 39.79 15.58L39.79 15.58L39.79 15.76L39.79 15.76Q39.79 16.79 40.15 17.36L40.15 17.36L40.15 17.36Q40.52 17.93 41.16 17.93L41.16 17.93L41.16 17.93Q41.94 17.93 42.45 17.39L42.45 17.39L42.45 17.39Q42.95 16.84 42.99 15.95L42.99 15.95L42.99 15.95Q43.72 15.95 44.11 16.22L44.11 16.22L44.11 16.22Q44.49 16.49 44.49 17.01L44.49 17.01L44.49 17.01Q44.49 17.60 44.02 18.10L44.02 18.10L44.02 18.10Q43.54 18.59 42.72 18.89L42.72 18.89L42.72 18.89Q41.90 19.18 40.91 19.18L40.91 19.18L40.91 19.18Q39.27 19.18 38.35 18.26L38.35 18.26L38.35 18.26Q37.42 17.33 37.42 15.71L37.42 15.71L37.42 15.71Q37.42 14.21 38.12 13.01L38.12 13.01L38.12 13.01Q38.81 11.80 40.03 11.12L40.03 11.12L40.03 11.12Q41.24 10.43 42.76 10.43L42.76 10.43L42.76 10.43Q43.97 10.43 44.65 10.96L44.65 10.96L44.65 10.96Q45.32 11.49 45.32 12.45L45.32 12.45ZM42.38 11.77L42.38 11.77Q41.54 11.77 40.84 12.59L40.84 12.59L40.84 12.59Q40.15 13.40 39.90 14.63L39.90 14.63L39.90 14.63Q41.50 14.56 42.37 14.04L42.37 14.04L42.37 14.04Q43.25 13.51 43.25 12.61L43.25 12.61L43.25 12.61Q43.25 12.24 43.01 12.01L43.01 12.01L43.01 12.01Q42.77 11.77 42.38 11.77L42.38 11.77Z"></path></g><!----><!----></svg>